<?xml version="1.0" encoding="utf-8"?>
<!-- Generator: Adobe Illustrator 21.1.0, SVG Export Plug-In . SVG Version: 6.00 Build 0)  -->
<svg version="1.1" xmlns="http://www.w3.org/2000/svg" xmlns:xlink="http://www.w3.org/1999/xlink" x="0px" y="0px"
	 viewBox="0 0 70.4 65" style="enable-background:new 0 0 70.4 65;" xml:space="preserve">
<style type="text/css">
	.st0{fill:#D29C98;}
</style>
<g id="Layer_1">
	<g>
		<path class="st0" d="M67,13.1c1.8,0.5,3.3,2.5,3.3,4.6c0,0.9-0.1,1.9-0.4,2.8c-3.8,12.6-7.6,25.2-11.4,37.8
			c-1,3.4-3.3,5.6-6.7,6.5c-0.7,0.2-1.4,0.2-2.1,0.2c-12.8,0-25.7,0-38.5,0C5.8,65,0.6,60.4,0,55.1c-0.1-1.2,0.2-2.4,0.4-3.7
			c0.1-1.2,0.4-2.5,0.1-3.8c-0.1-0.5,0.2-1.2,0.6-1.7c1.7-2.2,2.7-4.7,3.6-7.2c0.5-1.3,0.8-2.6,0.6-4c-0.1-0.5,0.2-1.1,0.5-1.5
			c1.9-2.5,2.9-5.4,3.6-8.4c0.1-0.6,0.1-1.2,0-1.8c-0.2-0.9,0.1-1.7,0.7-2.3c2.4-2.3,3.3-5.4,4.1-8.5c0.1-0.4,0.1-1,0-1.4
			c-0.2-0.9-0.1-1.6,0.6-2.3c1.2-1.2,1.9-2.7,2.5-4.3c0.3-0.7,0.6-1.4,0.9-2c1.1-2,2.5-2.6,4.7-2.2c0.4,0.1,0.8,0,1.3,0
			C24.8,0.1,25.4,0,26,0c10.6,0,21.1,0,31.7,0c2.8,0,4.8,1.3,5.7,3.8c0.6,1.5,0.4,3-0.1,4.4c-2.1,7-4.3,14.1-6.4,21.1
			c-1.9,6.2-3.8,12.5-5.7,18.7c-0.3,1-0.8,2-1.3,3c-0.8,1.9-2.4,2.7-4.3,2.9c-0.9,0.1-1.8,0.1-2.7,0.2c-11.8,0-23.6,0-35.3,0
			c-0.2,0-0.4,0-0.5,0c-2-0.1-2.9,1-1.8,3.1c0.8,1.5,2.2,2,3.8,2.2c0.8,0.1,1.5,0.1,2.3,0.1c12.8,0,25.6,0,38.4,0
			c0.7,0,1.5-0.2,2.2-0.4c1.1-0.4,1.8-1.2,2.1-2.4c3-9.8,5.9-19.5,8.9-29.3c1.1-3.8,2.3-7.5,3.4-11.3C66.6,15.3,66.8,14.2,67,13.1z
			 M23.7,21.7c-1.1,0-1.8,0.5-2.1,1.5c-0.3,0.7-0.5,1.5-0.7,2.2c-0.4,1.2,0,1.7,1.2,1.7c4.1,0,8.3,0,12.4,0c4.1,0,8.3,0,12.4,0
			c1.3,0,1.9-0.5,2.4-1.7c0.2-0.7,0.5-1.5,0.7-2.2c0.3-1,0-1.5-1.1-1.6 M27.4,10.8c-1.3,0-1.9,0.5-2.3,1.7c-0.3,0.7-0.5,1.5-0.7,2.2
			c-0.3,1,0.1,1.5,1.1,1.5c8.4,0,16.8,0,25.2,0c1.1,0,1.8-0.5,2.2-1.6c0.3-0.7,0.5-1.5,0.7-2.2c0.4-1.2,0.1-1.7-1.2-1.7"/>
	</g>
</g>
<g id="Layer_2">
</g>
</svg>
