<?xml version="1.0" encoding="utf-8"?>
<!-- Generator: Adobe Illustrator 21.1.0, SVG Export Plug-In . SVG Version: 6.00 Build 0)  -->
<svg version="1.1" id="Layer_1" xmlns="http://www.w3.org/2000/svg" xmlns:xlink="http://www.w3.org/1999/xlink" x="0px" y="0px"
	 viewBox="0 0 142.6 142.7" style="enable-background:new 0 0 142.6 142.7;" xml:space="preserve">
<style type="text/css">
	.st0{fill:#D29C98;}
</style>
<g>
	<path class="st0" d="M0,71.2c0-14.7,0-29.3,0-44C0,15.4,6.9,5.4,17.9,1.6c2.9-1,6.1-1.5,9.2-1.5c29.5-0.1,59,0,88.6-0.1
		c14.7-0.1,24.9,11.3,26.6,21.9c0.3,1.8,0.4,3.6,0.4,5.5c0,29.3,0,58.6,0,88c0,12.1-6.9,22.1-18.2,25.8c-2.9,1-6,1.4-9,1.4
		c-29.4,0.1-58.8,0.1-88.3,0.1c-13.3,0-24.5-9.1-26.7-21.9C0.1,118.9,0,117,0,115.2c0-7.3,0-14.7,0-22C0,85.8,0,78.5,0,71.2z
		 M55.4,55c0,21.6,0,43,0,64.3c7.2,0,14.2,0,21.3,0c0-0.7,0-1.3,0-1.9c0-11.4,0-22.8,0-34.2c0-4.1,1.3-7.4,4.3-10.1
		c6-5.3,15.2-2.7,17.3,5c0.6,2.5,0.8,5.1,0.9,7.6c0.1,10.6,0,21.3,0,31.9c0,0.6,0,1.1,0,1.7c7.3,0,14.4,0,21.5,0c0-6.6,0-13,0-19.4
		c-0.1-7.6,0-15.3-0.3-22.9c-0.2-4.4-1.4-8.7-3.7-12.5c-4.2-6.9-10.5-10.4-18.5-11c-8.5-0.6-15.5,2.3-20.6,9.4
		c-0.2,0.3-0.3,0.6-0.4,0.9c-0.2-0.1-0.3-0.2-0.5-0.3c0-2.8,0-5.6,0-8.4C69.5,55,62.5,55,55.4,55z M43.3,119.4c0-21.5,0-43,0-64.4
		c-7.2,0-14.2,0-21.3,0c0,21.5,0,42.9,0,64.4C29.2,119.4,36.2,119.4,43.3,119.4z M20.7,35.2c0,6.4,5.2,11.2,12,11.1
		c7-0.1,12.2-4.8,12.2-11.1c0-6.6-5-11.2-12-11.2C25.7,24,20.7,28.6,20.7,35.2z"/>
</g>
</svg>
